<svg xmlns="http://www.w3.org/2000/svg" width="1024" height="1024" viewBox="0 0 1024 1024">
  <defs>
    <linearGradient id="background" x1="128" y1="128" x2="896" y2="896" gradientUnits="userSpaceOnUse">
      <stop stop-color="#6E5BFF"/>
      <stop offset="1" stop-color="#C15CFF"/>
    </linearGradient>
    <linearGradient id="shine" x1="256" y1="192" x2="768" y2="832" gradientUnits="userSpaceOnUse">
      <stop stop-color="#FFFFFF" stop-opacity="0.18"/>
      <stop offset="1" stop-color="#FFFFFF" stop-opacity="0.03"/>
    </linearGradient>
  </defs>
  <rect x="64" y="64" width="896" height="896" rx="210" fill="url(#background)"/>
  <rect x="112" y="112" width="800" height="800" rx="170" fill="#12111A" fill-opacity="0.86"/>
  <rect x="112" y="112" width="800" height="800" rx="170" fill="url(#shine)"/>
  <path d="M260 438C260 412 281 391 307 391H396L533 283C556 265 590 281 590 311V713C590 743 556 759 533 741L396 633H307C281 633 260 612 260 586V438Z" fill="#FFFFFF"/>
  <path d="M668 405C716 463 716 561 668 619" fill="none" stroke="#FFFFFF" stroke-width="48" stroke-linecap="round"/>
  <path d="M757 326C850 427 850 597 757 698" fill="none" stroke="#FFFFFF" stroke-width="48" stroke-linecap="round" opacity="0.72"/>
</svg>
